<?xml version="1.0" encoding="UTF-8"?>
<svg id="Layer_1" data-name="Layer 1" xmlns="http://www.w3.org/2000/svg" viewBox="0 0 1080.25 1082.12">
  <defs>
    <style>
      .cls-1 {
        fill: #fff;
      }
    </style>
  </defs>
  <path d="M830.17,1082.12H0V0h1080.25v1082.12h-211.65l-8.65-15.73c-8.47-4.06-15.1-.84-20.85,5.45l-8.94,10.28ZM733.11,1026.38c37.72-25.93,72.48-53.23,103.11-86.08l27.39-29.38c24.08-25.83,42.85-55.11,56.59-87.39,32.78-7.09,74.66-18.75,87.13-49.48,41.85-25.16,55.86-93.9,56.72-142,.85-46.97-4.67-98.61-34.69-134.45-6.41-7.65-15.54-12.82-24.12-18.86-4.21-101.59-30.76-206.4-90.18-290.47-38.1-53.9-88.74-95.61-147.7-125.72C633.66-5.73,472.56-10.05,335.59,51.82c-62.44,28.2-116.65,69.77-158.59,123.6-68.28,87.66-95.37,192.42-101.24,302.8-46.6,27.62-58.41,87.03-59.2,139.59-.71,37.97,4.36,74.47,18.76,109.36,8.34,20.2,21.76,36.45,39.32,48.95,17.47,29.58,52.84,40.55,86.91,47.65,37.61,83.3,119.74,159.5,196.39,208.55,25.47,16.3,52.85,26.35,83.22,29.54,47.44,4.98,94.15,3.73,142.02,3.37,56.93-.44,101.31-5.43,149.93-38.86Z"/>
  <path d="M868.6,1082.12h-38.44l8.94-10.28c5.76-6.29,12.39-9.51,20.85-5.45l8.65,15.73Z"/>
  <g>
    <path d="M79.19,734.27c-30.76-43.16-33.08-117.31-21.13-169.21,3.77-16.39,8.91-30.55,19.53-43.61l1.78,78.81-.18,134Z"/>
    <path d="M1024.11,675.19c-5.04,20.69-9.77,38.91-22.21,56.69l.36-136.86,2.07-72.02c10.18,11.76,14.55,25.11,18.02,39.94,8.58,36.61,8.36,74.27,1.76,112.25Z"/>
    <path d="M150.79,786.17c-17.54-5.88-42.59-13.34-42.47-28.94l.71-92.84,18.59,4.27,17.26,91.7,5.91,25.82Z"/>
    <path d="M972.61,755.63c0,17.63-21.18,23.62-41.21,30.35l22.34-115.13,18.9-7.4-.03,92.18Z"/>
    <path class="cls-1" d="M896.01,605.67l-143.59-11.83c-177.22-14.6-325.88-9.8-501.94,6.84-24.75,2.34-47.91,5.11-71.8,4.34-20.81-.67-33.38-15.36-33.99-35.31-1.35-44.14-1.82-87.33,2.21-131.53,1.38-15.18,10.54-30.04,20.68-40.81,10.77-11.44,26.02-17.83,41.88-19.96,94.03-12.65,187.01-19.46,282.02-22.59,38.68-1.27,74.48-1.35,113.16.18,92.17,3.66,182.44,10.6,273.57,23.88,11.75,1.71,23.74,7.79,32.13,15.55,23.82,22.04,28.36,50.47,28.23,82.64l-.36,93.16c-.06,15.23-7.94,27.03-22.1,31.66-5.6,1.83-12.75,4.4-20.09,3.79ZM902.64,437.94c-2.44-11.01-7.6-16.98-13.37-24.55-6.24-3.77-13.72-7.36-21.51-8.18l-126.03-13.14c-127.19-13.26-252.89-12.21-380.34-1.79l-149.17,14.76c-17.87,1.77-30.88,15.27-34.47,32.84,117.95-15.31,234.29-25.4,352.68-26.19,125.03-.83,247.66,9.6,372.21,26.25ZM585.85,498.66c0-25.38-20.54-45.95-45.87-45.95s-45.87,20.57-45.87,45.95,20.54,45.95,45.87,45.95,45.87-20.57,45.87-45.95Z"/>
    <path class="cls-1" d="M733.11,1026.38c-48.62,33.43-93,38.42-149.93,38.86-47.87.37-94.58,1.61-142.02-3.37-30.37-3.19-57.75-13.24-83.22-29.54-76.66-49.06-158.79-125.26-196.39-208.55-34.08-7.1-69.44-18.07-86.91-47.65-17.56-12.5-30.98-28.75-39.32-48.95-14.4-34.88-19.47-71.39-18.76-109.36.79-52.56,12.61-111.97,59.2-139.59,5.87-110.38,32.95-215.15,101.24-302.8,41.94-53.84,96.16-95.4,158.59-123.6,136.98-61.87,298.07-57.56,431.78,10.73,58.96,30.11,109.6,71.82,147.7,125.72,59.42,84.07,85.97,188.88,90.18,290.47,8.58,6.03,17.71,11.21,24.12,18.86,30.02,35.84,35.53,87.48,34.69,134.45-.87,48.1-14.88,116.84-56.72,142-12.47,30.73-54.35,42.4-87.13,49.48-13.74,32.28-32.51,61.55-56.59,87.39l-27.39,29.38c-30.62,32.85-65.39,60.14-103.11,86.08ZM941.55,639.02c12.95,1.69,21.71-6.5,22.78-17.56,3.21-33.15,4.86-65.34,5.58-98.92.98-45.49-3.47-88.48-12.58-132.88-10.11-49.26-24.45-96.04-48.86-139.89-51.42-95.22-140.14-161.24-247.07-187.91l-1.05,133.66c-.1,13.3-16.07,20.26-26.63,19.58-10.15-.65-23.92-8.34-23.95-21.05l-.32-142.49c-14.67-2.43-27.24-3.7-43.81-4.56l-.69,148.29c-.06,12.67-14.6,19.81-24.67,19.64s-24.04-8.27-24.13-20.68l-1.03-147.83c-16.75.98-29.59,2.35-45.32,4.97l-.25,141.78c-.02,13.47-13.38,21.39-24.75,21.8-11.11.4-25.59-7.15-25.64-20.87l-.45-132.52c-74.44,19.15-141.88,60.08-193.76,116.36-33.82,37.93-60.59,81.36-78,129.47-30.53,84.36-40.26,168.03-34.76,257.24,1.23,20,1.86,38.74,4.58,57.84,1.69,11.93,11.29,17.67,22.53,16.47l114.63-12.23c92.55-8.1,183.45-12.51,276.36-14.04,51.85-.85,101.01,1.99,152.53,4.16,86.78,3.66,171.5,10.76,258.72,22.14ZM79.19,734.27l.18-134-1.78-78.81c-10.62,13.06-15.76,27.22-19.53,43.61-11.94,51.9-9.63,126.05,21.13,169.21ZM1024.11,675.19c6.61-37.98,6.82-75.64-1.76-112.25-3.47-14.83-7.84-28.18-18.02-39.94l-2.07,72.02-.36,136.86c12.43-17.78,17.16-36,22.21-56.69ZM753.24,778.93c6.4-7.28,17.86-5.79,22.25-.24,4.87,6.15,3.97,13.64-1.4,19.82l-84.57,97.43-19.96,78.31-11.28,48.66c22.01-6.11,39.91-14.63,57.53-27.1,45.96-32.55,87.36-69.26,123.78-112.25,20.52-24.23,37.68-48.79,48.05-78.99,11.63-33.89,19.42-67.92,25.76-103.17l6.52-36.22-148.08-13.62c-197.58-18.17-410.08-8.27-608.3,13.76,9.45,62.58,20.28,129.38,52.02,183.17,41.85,61.48,94.43,107.89,154.23,150.84,17.3,11.01,34.65,19.32,54.89,24.34l-32.83-128.56-84.74-97.5c-5.69-6.55-4.3-15.9,1.3-20.43,5.53-4.48,15.4-3.99,20.72,2.08l85.94,97.98,252.22-.42,85.97-97.89ZM150.79,786.17l-5.91-25.82-17.26-91.7-18.59-4.27-.71,92.84c-.12,15.61,24.92,23.06,42.47,28.94ZM972.61,755.63l.03-92.18-18.9,7.4-22.34,115.13c20.03-6.73,41.2-12.73,41.21-30.35ZM625.18,1029.03l30.59-122.98-230.79.35,17.54,66.21,13.77,56.57c57.08,1.52,112.45,2.31,168.89-.15Z"/>
    <g>
      <path d="M902.64,437.94c-124.55-16.66-247.18-27.09-372.21-26.25-118.39.79-234.73,10.87-352.68,26.19,3.59-17.56,16.6-31.07,34.47-32.84l149.17-14.76c127.45-10.42,253.15-11.47,380.34,1.79l126.03,13.14c7.79.81,15.27,4.4,21.51,8.18,5.77,7.58,10.93,13.54,13.37,24.55Z"/>
      <path d="M941.55,639.02c-87.23-11.38-171.95-18.48-258.72-22.14-51.52-2.17-100.68-5.02-152.53-4.16-92.91,1.53-183.81,5.95-276.36,14.04l-114.63,12.23c-11.24,1.2-20.84-4.54-22.53-16.47-2.71-19.1-3.34-37.84-4.58-57.84-5.5-89.21,4.23-172.88,34.76-257.24,17.41-48.11,44.18-91.55,78-129.47,51.87-56.28,119.32-97.22,193.76-116.36l.45,132.52c.05,13.72,14.53,21.27,25.64,20.87,11.38-.41,24.73-8.34,24.75-21.8l.25-141.78c15.73-2.62,28.57-3.99,45.32-4.97l1.03,147.83c.09,12.41,13.79,20.5,24.13,20.68s24.61-6.97,24.67-19.64l.69-148.29c16.57.86,29.14,2.13,43.81,4.56l.32,142.49c.03,12.71,13.79,20.39,23.95,21.05,10.56.68,26.53-6.27,26.63-19.58l1.05-133.66c106.92,26.67,195.65,92.7,247.07,187.91,24.41,43.84,38.75,90.63,48.86,139.89,9.11,44.4,13.55,87.39,12.58,132.88-.72,33.58-2.37,65.77-5.58,98.92-1.07,11.06-9.84,19.25-22.78,17.56ZM896.01,605.67c7.34.6,14.49-1.96,20.09-3.79,14.16-4.63,22.04-16.44,22.1-31.66l.36-93.16c.13-32.16-4.42-60.6-28.23-82.64-8.39-7.76-20.38-13.84-32.13-15.55-91.13-13.28-181.4-20.21-273.57-23.88-38.68-1.54-74.48-1.46-113.16-.18-95,3.13-187.98,9.95-282.02,22.59-15.86,2.13-31.1,8.53-41.88,19.96-10.14,10.76-19.3,25.62-20.68,40.81-4.03,44.21-3.56,87.39-2.21,131.53.61,19.95,13.18,34.64,33.99,35.31,23.89.77,47.05-2,71.8-4.34,176.06-16.63,324.72-21.44,501.94-6.84l143.59,11.83Z"/>
      <ellipse cx="539.98" cy="498.66" rx="45.87" ry="45.95"/>
    </g>
    <g>
      <path d="M753.24,778.93l-85.97,97.89-252.22.42-85.94-97.98c-5.32-6.07-15.19-6.56-20.72-2.08-5.6,4.53-6.99,13.88-1.3,20.43l84.74,97.5,32.83,128.56c-20.25-5.02-37.6-13.33-54.89-24.34-59.8-42.94-112.38-89.35-154.23-150.84-31.74-53.79-42.57-120.59-52.02-183.17,198.23-22.03,410.73-31.92,608.3-13.76l148.08,13.62-6.52,36.22c-6.34,35.25-14.12,69.28-25.76,103.17-10.37,30.2-27.53,54.76-48.05,78.99-36.42,42.98-77.81,79.7-123.78,112.25-17.62,12.48-35.52,21-57.53,27.1l11.28-48.66,19.96-78.31,84.57-97.43c5.37-6.18,6.27-13.67,1.4-19.82-4.39-5.54-15.86-7.04-22.25.24Z"/>
      <path d="M625.18,1029.03c-56.44,2.46-111.81,1.67-168.89.15l-13.77-56.57-17.54-66.21,230.79-.35-30.59,122.98Z"/>
    </g>
  </g>
</svg>